<?xml version="1.0" encoding="utf-8"?>
<!-- Generator: Adobe Illustrator 24.3.0, SVG Export Plug-In . SVG Version: 6.00 Build 0)  -->
<svg version="1.1" id="Layer_1" xmlns="http://www.w3.org/2000/svg" xmlns:xlink="http://www.w3.org/1999/xlink" x="0px" y="0px"
	 viewBox="0 0 948.7 274.7" style="enable-background:new 0 0 948.7 274.7;" xml:space="preserve">
<style type="text/css">
	.st0{fill:#FFFFFF;}
	.st1{fill:#816DFF;}
	.st2{opacity:0.2;}
	.st3{font-family:'HeliosRounded';}
	.st4{font-size:27.8241px;}
	.st5{letter-spacing:3;}
	.st6{letter-spacing:2;}
</style>
<polygon class="st0" points="103,190.8 59.5,262.1 6,262.1 78.1,153.8 "/>
<polygon class="st1" points="182.3,220.1 132.2,220.1 24,57.5 77.4,57.5 111.9,108.8 146.4,57.5 199.8,57.5 136.7,145.4 "/>
<polygon class="st1" points="258.7,113.8 233,115.4 245.6,146.6 257.6,176.6 266.2,197.9 275,219.7 304.9,219.7 262.6,113.6 "/>
<polygon class="st0" points="190.3,217.4 190.3,217.4 189,220.5 219,220.5 227.7,198.7 236.2,177.5 243.8,158.3 228,122.9 "/>
<path class="st0" d="M373.4,186.7c-4.9,5.7-12.3,8.4-20.7,8.4c-14.4,0-26.1-13.6-26.1-30.3c0-2.5,0.3-5,0.8-7.5L303,141.8
	c-3.5,7.2-5.3,15-5.3,23c0,29.6,24.6,53.6,55,53.6c18.3,0,32.4-6.4,41.9-16.7L373.4,186.7z"/>
<path class="st1" d="M353.9,107.5c-20.1-0.1-38.6,10.7-48.4,28.3l24,14.8c3.7-11.5,13.3-19.7,24.4-19.7c8.5,0,15.8,2.7,20.7,8.4
	l21.2-15.1C386.4,113.9,372.3,107.5,353.9,107.5z"/>
<polygon class="st0" points="580,160.9 580,218.1 608.8,218.1 608.8,177.6 "/>
<polygon class="st1" points="547.2,107.7 547.2,130.2 580,130.2 580,153.4 608.8,170.5 608.8,130.2 641.3,130.2 641.3,107.7 "/>
<polygon class="st0" points="435.9,161.3 435.9,218.5 464.7,218.5 464.7,178 "/>
<polygon class="st1" points="403.1,108.1 403.1,130.6 435.9,130.6 435.9,153.8 464.7,170.9 464.7,130.6 497.2,130.6 497.2,108.1 "/>
<polygon class="st0" points="507.9,133.9 507.1,218.3 535.3,218.3 535.9,148.9 "/>
<polygon class="st1" points="536.1,108.1 507.9,108.1 507.8,126.4 535.9,141.4 "/>
<path class="st1" d="M740.4,176.3v-68.2h-27.1v68.2c0,1.8-0.4,3.6-1.1,5.3l23.1,12.9C738.6,189.1,740.4,182.8,740.4,176.3z"/>
<polygon class="st1" points="679.4,108.1 651.2,108.1 651.2,142.5 651.3,148.9 679.5,164.7 "/>
<path class="st0" d="M709.9,187.4c-3.3,4.6-8.6,7.3-14.2,7.3c-8.9,0-16.2-7.2-16.2-14.2v-9.3l-28.2-15.8v25
	c0,20.9,20.1,37.9,44.4,37.9c15.9,0,29.6-7.2,37.3-18.1L709.9,187.4z"/>
<path class="st0" d="M810.6,183.6c-5,5.5-12.9,10-25.6,10.4h-5.9v-28l-28.2-15.7v67.2l28.2,1.2h5c18,0,34.2-7.6,48.7-22.7
	L810.6,183.6z"/>
<path class="st1" d="M786.1,108.1h-35.2v23.6v11.3l28.2,15.9v-27.2h7c18.1,0,32.8,13.2,32.8,29.4c0,0.9,0,9.9-4.7,17.1l22.5,12.7
	c7.2-8.3,11.1-18.8,11-29.8C847.8,131.8,820.3,108.1,786.1,108.1z"/>
<polygon class="st1" points="857.9,151.3 893,172.4 928.3,172.4 928.3,148.8 886,148.8 886,131.8 937.1,131.8 937.1,108.1 
	857.8,108.1 857.8,147.9 857.9,147.9 "/>
<polygon class="st1" points="937.1,190.6 923.3,190.6 937.1,198.9 "/>
<polygon class="st0" points="912.7,190.6 908.5,190.6 908.5,190.6 886,190.8 886.1,175.1 857.9,158.6 857.8,214.7 935.4,214.2 
	935.4,214.2 937.1,214.2 937.1,204.9 "/>
<g class="st2">
	
		<image style="overflow:visible;enable-background:new    ;" width="1115" height="891" xlink:href="8399CEE0.png"  transform="matrix(0.2473 0 0 0.2473 -28.8005 -8)">
	</image>
</g>
<image style="overflow:visible;enable-background:new    ;" width="524" height="357" xlink:href="8399CEE1.png"  transform="matrix(0.4217 0 0 0.4011 1.5794 34.9861)">
</image>
<text transform="matrix(1 0 0 1 90.2251 257.6592)" class="st0 st3 st4 st5">NATIONAL LEVEL INTER COLLEGIATE IT FEST</text>
<text transform="matrix(1 0 0 1 825.3291 257.6592)" class="st0 st3 st4 st6"> - </text>
<text transform="matrix(1 0 0 1 857.7695 257.6592)" class="st1 st3 st4 st5">2023</text>
<path class="st0" d="M246.1,73.4c2.8,0,5.2,2.3,5.2,5.2v7.3c0,2.8-2.3,5.1-5.2,5.2h-10.4c-0.3,0-0.5-0.1-0.7-0.3
	c-0.2-0.2-0.3-0.5-0.3-0.8c0-0.3,0.1-0.5,0.3-0.7c0.2-0.2,0.5-0.3,0.7-0.3h10.4c0.8,0,1.6-0.3,2.2-0.9c0.6-0.6,0.9-1.4,0.9-2.2v-7.2
	c0-1.7-1.4-3.1-3.1-3.1h-10.4c-0.3,0-0.5-0.1-0.7-0.3c-0.2-0.2-0.3-0.5-0.3-0.7c0-0.6,0.5-1,1-1L246.1,73.4z"/>
<path class="st0" d="M257.1,74.4c0-0.3,0.1-0.5,0.3-0.7c0.2-0.2,0.5-0.3,0.7-0.3h14.6c0.6,0,1,0.5,1,1c0,0.3-0.1,0.5-0.3,0.7
	c-0.2,0.2-0.5,0.3-0.7,0.3h-14.6C257.6,75.5,257.1,75,257.1,74.4L257.1,74.4z M258.2,82.7c-0.3,0-0.5-0.1-0.7-0.3
	c-0.4-0.4-0.4-1.1,0-1.5c0,0,0,0,0,0c0.2-0.2,0.5-0.3,0.7-0.3h14.6c0.3,0,0.5,0.1,0.7,0.3c0.4,0.4,0.4,1.1,0,1.5c0,0,0,0,0,0
	c-0.2,0.2-0.5,0.3-0.7,0.3H258.2z M258.2,91.1c-0.3,0-0.5-0.1-0.7-0.3c-0.2-0.2-0.3-0.5-0.3-0.8c0-0.6,0.5-1,1-1h14.6
	c0.3,0,0.5,0.1,0.7,0.3c0.2,0.2,0.3,0.5,0.3,0.7c0,0.6-0.5,1-1,1L258.2,91.1z"/>
<path class="st0" d="M295.2,73.4c0.3,0,0.5,0.1,0.7,0.3c0.2,0.2,0.3,0.5,0.3,0.7V78c0,2.6-2.1,4.7-4.7,4.7c0,0,0,0,0,0h-9.4
	c-0.2,0-0.5,0.1-0.5,0.4c0,0,0,0.1,0,0.1V90c0,0.3-0.1,0.6-0.3,0.8c-0.2,0.2-0.5,0.3-0.7,0.3c-0.6,0-1-0.5-1-1v-8.3
	c0-0.3,0.1-0.5,0.3-0.7c0.2-0.2,0.5-0.3,0.8-0.3h10.9c0.7,0,1.3-0.3,1.8-0.8c0.5-0.5,0.8-1.1,0.8-1.8V76c0-0.3-0.1-0.5-0.4-0.5
	c0,0-0.1,0-0.1,0h-13c-0.3,0-0.6-0.1-0.8-0.3c-0.2-0.2-0.3-0.5-0.3-0.7c0-0.3,0.1-0.5,0.3-0.7c0.2-0.2,0.5-0.3,0.8-0.3L295.2,73.4z"
	/>
<path class="st0" d="M313.5,73.4c2.8,0,5.2,2.3,5.2,5.1c0,0,0,0,0,0.1V90c0,0.3-0.1,0.6-0.3,0.8c-0.4,0.4-1.1,0.4-1.5,0c0,0,0,0,0,0
	c-0.2-0.2-0.3-0.5-0.3-0.8V78.6c0-1.7-1.4-3.1-3.1-3.1h-6.2c-1.7,0-3.1,1.4-3.1,3.1V90c0,0.3-0.1,0.6-0.3,0.8
	c-0.4,0.4-1.1,0.4-1.5,0c0,0,0,0,0,0c-0.2-0.2-0.3-0.5-0.3-0.8V78.6c0-2.8,2.3-5.2,5.2-5.2L313.5,73.4z"/>
<path class="st0" d="M341.2,78c0,1.5-0.7,2.9-1.9,3.8c1.2,1,2,2.5,1.9,4V90c0,0.6-0.5,1-1,1c-0.3,0-0.5-0.1-0.7-0.3
	c-0.2-0.2-0.3-0.5-0.3-0.8v-4.1c0-1.7-1.4-3.1-3.1-3.1h-8.8c-0.2,0-0.5,0.1-0.5,0.4c0,0,0,0.1,0,0.1V90c0,0.6-0.5,1-1,1
	c-0.3,0-0.5-0.1-0.7-0.3c-0.2-0.2-0.3-0.5-0.3-0.8v-8.3c0-0.3,0.1-0.5,0.3-0.7c0.2-0.2,0.5-0.3,0.7-0.3h10.9c0.7,0,1.4-0.3,1.8-0.8
	c0.5-0.5,0.8-1.1,0.8-1.8v-2.6h-13.6c-0.6,0-1-0.5-1-1c0-0.3,0.1-0.5,0.3-0.7c0.2-0.2,0.5-0.3,0.7-0.3h14.6c0.6,0,1,0.5,1,1
	L341.2,78z"/>
<path class="st0" d="M362.7,73.4c0.3,0,0.6,0.1,0.8,0.3c0.2,0.2,0.3,0.5,0.3,0.7c0,0.6-0.5,1-1,1H357c-0.2,0-0.5,0.1-0.5,0.4
	c0,0,0,0.1,0,0.1v14c0,0.3-0.1,0.6-0.3,0.8c-0.2,0.2-0.5,0.3-0.8,0.3c-0.3,0-0.5-0.1-0.7-0.3c-0.2-0.2-0.3-0.5-0.3-0.8V76
	c0-0.2-0.1-0.5-0.4-0.5c0,0-0.1,0-0.1,0h-5.7c-0.3,0-0.6-0.1-0.8-0.3c-0.2-0.2-0.3-0.5-0.3-0.7c0-0.3,0.1-0.5,0.3-0.7
	c0.2-0.2,0.5-0.3,0.8-0.3H362.7z"/>
<path class="st0" d="M385.6,73.8c0.2-0.2,0.5-0.4,0.8-0.4h0.8c0.3,0,0.5,0.1,0.7,0.3c0.2,0.2,0.3,0.5,0.3,0.7V90
	c0,0.3-0.1,0.6-0.3,0.8c-0.2,0.2-0.5,0.3-0.7,0.3c-0.3,0-0.5-0.1-0.7-0.3c-0.2-0.2-0.3-0.5-0.3-0.8V76.9c0-0.1,0-0.2-0.1-0.2
	c-0.1,0-0.2,0-0.2,0.1l-6.5,8.1c-0.1,0.1-0.2,0.2-0.4,0.2c-0.2,0-0.3-0.1-0.4-0.2l-6.5-8.1c-0.1-0.1-0.2-0.1-0.3,0
	c-0.1,0-0.1,0.1-0.1,0.2V90c0,0.3-0.1,0.6-0.3,0.8c-0.4,0.4-1.1,0.4-1.5,0c0,0,0,0,0,0c-0.2-0.2-0.3-0.5-0.3-0.8V74.4
	c0-0.6,0.5-1,1-1h0.8c0.3,0,0.6,0.1,0.8,0.4l6.3,7.8c0.1,0.1,0.3,0.2,0.4,0.2c0.2,0,0.3-0.1,0.4-0.2L385.6,73.8z"/>
<path class="st0" d="M394.1,74.4c0-0.6,0.5-1,1-1h14.6c0.3,0,0.5,0.1,0.7,0.3c0.2,0.2,0.3,0.5,0.3,0.7c0,0.6-0.5,1-1,1h-14.6
	c-0.3,0-0.5-0.1-0.7-0.3C394.2,74.9,394.1,74.7,394.1,74.4z M395.2,82.7c-0.3,0-0.5-0.1-0.7-0.3c-0.4-0.4-0.4-1.1,0-1.5c0,0,0,0,0,0
	c0.2-0.2,0.5-0.3,0.7-0.3h14.6c0.6,0,1,0.4,1,1c0,0.3-0.1,0.6-0.3,0.8c-0.2,0.2-0.5,0.3-0.7,0.3H395.2z M395.2,91.1
	c-0.3,0-0.5-0.1-0.7-0.3c-0.2-0.2-0.3-0.5-0.3-0.8c0-0.3,0.1-0.5,0.3-0.7c0.2-0.2,0.5-0.3,0.7-0.3h14.6c0.3,0,0.5,0.1,0.7,0.3
	c0.2,0.2,0.3,0.5,0.3,0.7c0,0.3-0.1,0.6-0.3,0.8c-0.2,0.2-0.5,0.3-0.7,0.3H395.2z"/>
<path class="st0" d="M418.7,90c0,0.6-0.5,1-1,1c-0.3,0-0.5-0.1-0.7-0.3c-0.2-0.2-0.3-0.5-0.3-0.8V74.4c0-0.3,0.1-0.5,0.3-0.7
	c0.2-0.2,0.5-0.3,0.7-0.3h0.9c0.3,0,0.6,0.1,0.8,0.4l11.5,13.9c0,0.1,0.1,0.1,0.2,0.1c0.1,0,0.1-0.1,0.1-0.2V74.4
	c0-0.3,0.1-0.5,0.3-0.7c0.4-0.4,1.1-0.4,1.5,0c0,0,0,0,0,0c0.2,0.2,0.3,0.5,0.3,0.7V90c0,0.6-0.5,1-1,1h-0.9c-0.3,0-0.6-0.1-0.8-0.4
	l-11.5-13.9c-0.1-0.1-0.1-0.1-0.2-0.1c-0.1,0-0.1,0.1-0.1,0.2L418.7,90z"/>
<path class="st0" d="M454.7,73.4c0.3,0,0.5,0.1,0.7,0.3c0.2,0.2,0.3,0.5,0.3,0.7c0,0.6-0.5,1-1,1H449c-0.2,0-0.5,0.1-0.5,0.4
	c0,0,0,0.1,0,0.1v14c0,0.3-0.1,0.6-0.3,0.8c-0.2,0.2-0.5,0.3-0.8,0.3c-0.3,0-0.5-0.1-0.7-0.3c-0.2-0.2-0.3-0.5-0.3-0.8V76
	c0-0.2-0.1-0.5-0.4-0.5c0,0-0.1,0-0.1,0h-5.7c-0.3,0-0.6-0.1-0.8-0.3c-0.2-0.2-0.3-0.5-0.3-0.7c0-0.3,0.1-0.5,0.3-0.7
	c0.2-0.2,0.5-0.3,0.8-0.3H454.7z"/>
<path class="st0" d="M477.4,91.1c-2.8,0-5.2-2.3-5.2-5.2v-7.3c0-2.8,2.3-5.2,5.2-5.2h6.2c2.8,0,5.2,2.3,5.2,5.2v7.3
	c0,2.8-2.3,5.1-5.2,5.2L477.4,91.1z M477.4,75.5c-1.7,0-3.1,1.4-3.1,3.1v7.3c0,0.8,0.3,1.6,0.9,2.2c0.6,0.6,1.4,0.9,2.2,0.9h6.2
	c0.8,0,1.6-0.3,2.2-0.9c0.6-0.6,0.9-1.4,0.9-2.2v-7.3c0-1.7-1.4-3.1-3.1-3.1L477.4,75.5z"/>
<path class="st0" d="M494.7,74.4c0-0.3,0.1-0.5,0.3-0.7c0.2-0.2,0.5-0.3,0.7-0.3h14.6c0.3,0,0.5,0.1,0.7,0.3
	c0.2,0.2,0.3,0.5,0.3,0.7c0,0.3-0.1,0.5-0.3,0.7c-0.2,0.2-0.5,0.3-0.7,0.3h-14.6C495.1,75.5,494.7,75,494.7,74.4L494.7,74.4z
	 M494.7,85.8c0-2.8,2.3-5.1,5.2-5.2h10.4c0.3,0,0.5,0.1,0.7,0.3c0.4,0.4,0.4,1,0,1.5c-0.2,0.2-0.5,0.3-0.8,0.3h-10.3
	c-0.8,0-1.6,0.3-2.2,0.9c-0.6,0.6-0.9,1.4-0.9,2.2V90c0,0.6-0.5,1-1,1c-0.3,0-0.5-0.1-0.7-0.3c-0.2-0.2-0.3-0.5-0.3-0.8L494.7,85.8z
	"/>
<path class="st0" d="M532.9,91.1c-2.9,0-5.2-2.3-5.2-5.2v-7.3c0-2.8,2.3-5.2,5.2-5.2c0,0,0,0,0.1,0h10.4c0.3,0,0.5,0.1,0.7,0.3
	c0.2,0.2,0.3,0.5,0.3,0.7c0,0.6-0.5,1-1,1h-10.4c-0.8,0-1.6,0.3-2.2,0.9c-0.6,0.6-0.9,1.4-0.9,2.2v7.3c0,1.7,1.4,3.1,3.1,3.1h10.4
	c0.6,0,1,0.5,1,1c0,0.3-0.1,0.6-0.3,0.8c-0.2,0.2-0.5,0.3-0.7,0.3L532.9,91.1z"/>
<path class="st0" d="M555.4,91.1c-2.8,0-5.2-2.3-5.2-5.2v-7.3c0-2.8,2.3-5.2,5.2-5.2h6.2c2.8,0,5.2,2.3,5.2,5.2v7.3
	c0,2.8-2.3,5.1-5.2,5.2L555.4,91.1z M555.4,75.5c-0.8,0-1.6,0.3-2.2,0.9c-0.6,0.6-0.9,1.4-0.9,2.2v7.3c0,1.7,1.4,3.1,3.1,3.1h6.2
	c0.8,0,1.6-0.3,2.2-0.9c0.6-0.6,0.9-1.4,0.9-2.2v-7.3c0-1.7-1.4-3.1-3.1-3.1L555.4,75.5z"/>
<path class="st0" d="M588.8,73.8c0.2-0.2,0.5-0.4,0.8-0.4h0.8c0.3,0,0.5,0.1,0.7,0.3c0.2,0.2,0.3,0.5,0.3,0.7V90c0,0.6-0.5,1-1,1
	c-0.3,0-0.5-0.1-0.7-0.3c-0.2-0.2-0.3-0.5-0.3-0.8v-13c0-0.1,0-0.2-0.1-0.2c-0.1,0-0.2,0-0.2,0.1l-6.5,8.1c-0.1,0.1-0.2,0.2-0.4,0.2
	c-0.2,0-0.3-0.1-0.4-0.2l-6.5-8.1c-0.1-0.1-0.2-0.1-0.3-0.1c-0.1,0-0.1,0.1-0.1,0.2V90c0,0.3-0.1,0.6-0.3,0.8
	c-0.2,0.2-0.5,0.3-0.7,0.3c-0.3,0-0.6-0.1-0.8-0.3c-0.2-0.2-0.3-0.5-0.3-0.8V74.4c0-0.3,0.1-0.5,0.3-0.7c0.2-0.2,0.5-0.3,0.8-0.3
	h0.8c0.3,0,0.6,0.1,0.8,0.4l6.3,7.8c0.1,0.1,0.2,0.2,0.4,0.2c0.2,0,0.3-0.1,0.4-0.2L588.8,73.8z"/>
<path class="st0" d="M612.8,73.4c0.3,0,0.5,0.1,0.7,0.3c0.2,0.2,0.3,0.5,0.3,0.7V78c0,2.6-2.1,4.7-4.7,4.7c0,0,0,0,0,0h-9.4
	c-0.2,0-0.5,0.1-0.5,0.4c0,0,0,0.1,0,0.1V90c0,0.3-0.1,0.6-0.3,0.8c-0.2,0.2-0.5,0.3-0.7,0.3c-0.3,0-0.6-0.1-0.8-0.3
	c-0.2-0.2-0.3-0.5-0.3-0.8v-8.3c0-0.3,0.1-0.5,0.3-0.7c0.2-0.2,0.5-0.3,0.8-0.3h10.9c0.7,0,1.4-0.3,1.9-0.8c0.5-0.5,0.8-1.1,0.8-1.8
	V76c0-0.3-0.1-0.5-0.4-0.5c0,0-0.1,0-0.1,0h-13c-0.3,0-0.6-0.1-0.8-0.3c-0.2-0.2-0.3-0.5-0.3-0.7c0-0.3,0.1-0.5,0.3-0.7
	c0.2-0.2,0.5-0.3,0.8-0.3L612.8,73.4z"/>
<path class="st0" d="M625,91.1c-2.8,0-5.1-2.3-5.2-5.2V74.4c0-0.6,0.5-1,1-1c0.3,0,0.5,0.1,0.7,0.3c0.2,0.2,0.3,0.5,0.3,0.7v11.4
	c0,0.8,0.3,1.6,0.9,2.2c0.6,0.6,1.4,0.9,2.2,0.9h6.2c0.8,0,1.6-0.3,2.2-0.9c0.6-0.6,0.9-1.4,0.9-2.2V74.4c0-0.3,0.1-0.5,0.3-0.7
	c0.4-0.4,1.1-0.4,1.5,0c0,0,0,0,0,0c0.2,0.2,0.3,0.5,0.3,0.7v11.4c0,2.8-2.3,5.1-5.2,5.2L625,91.1z"/>
<path class="st0" d="M657.9,73.4c0.3,0,0.5,0.1,0.7,0.3c0.2,0.2,0.3,0.5,0.3,0.7c0,0.3-0.1,0.5-0.3,0.7c-0.2,0.2-0.5,0.3-0.7,0.3
	h-5.7c-0.2,0-0.5,0.1-0.5,0.4c0,0,0,0.1,0,0.1v14c0,0.3-0.1,0.6-0.3,0.8c-0.2,0.2-0.5,0.3-0.7,0.3c-0.6,0-1-0.5-1-1V76
	c0-0.2-0.1-0.5-0.4-0.5c0,0-0.1,0-0.1,0h-5.7c-0.3,0-0.5-0.1-0.7-0.3c-0.2-0.2-0.3-0.5-0.3-0.7c0-0.6,0.5-1,1-1H657.9z"/>
<path class="st0" d="M664.8,74.4c0-0.3,0.1-0.5,0.3-0.7c0.2-0.2,0.5-0.3,0.8-0.3h14.6c0.3,0,0.5,0.1,0.7,0.3
	c0.2,0.2,0.3,0.5,0.3,0.7c0,0.6-0.5,1-1,1h-14.6c-0.3,0-0.6-0.1-0.8-0.3C664.9,74.9,664.8,74.7,664.8,74.4z M665.8,82.7
	c-0.6,0-1-0.5-1-1c0-0.3,0.1-0.5,0.3-0.7c0.2-0.2,0.5-0.3,0.8-0.3h14.6c0.3,0,0.5,0.1,0.7,0.3c0.4,0.4,0.4,1.1,0,1.5c0,0,0,0,0,0
	c-0.2,0.2-0.5,0.3-0.7,0.3L665.8,82.7z M665.8,91.1c-0.6,0-1-0.5-1-1c0-0.3,0.1-0.5,0.3-0.7c0.2-0.2,0.5-0.3,0.8-0.3h14.6
	c0.6,0,1,0.5,1,1c0,0.3-0.1,0.6-0.3,0.8c-0.2,0.2-0.5,0.3-0.7,0.3L665.8,91.1z"/>
<path class="st0" d="M703.9,78c0,1.5-0.7,2.9-1.9,3.8c1.2,1,2,2.5,1.9,4V90c0,0.3-0.1,0.6-0.3,0.8c-0.4,0.4-1.1,0.4-1.5,0
	c0,0,0,0,0,0c-0.2-0.2-0.3-0.5-0.3-0.8v-4.1c0-1.7-1.4-3.1-3.1-3.1h-8.9c-0.2,0-0.5,0.1-0.5,0.4c0,0,0,0.1,0,0.1V90
	c0,0.3-0.1,0.6-0.3,0.8c-0.4,0.4-1.1,0.4-1.5,0c0,0,0,0,0,0c-0.2-0.2-0.3-0.5-0.3-0.8v-8.3c0-0.3,0.1-0.5,0.3-0.7
	c0.2-0.2,0.5-0.3,0.7-0.3h10.9c1.4,0,2.6-1.2,2.6-2.6v-2.6h-13.5c-0.3,0-0.5-0.1-0.7-0.3c-0.2-0.2-0.3-0.5-0.3-0.7c0-0.6,0.5-1,1-1
	h14.6c0.3,0,0.5,0.1,0.7,0.3c0.2,0.2,0.3,0.5,0.3,0.7L703.9,78z"/>
<path class="st0" d="M724.5,75.5c-1.1,0-2.1,0.9-2.1,2.1v1c0,0.6,0.2,1.1,0.6,1.5c0.4,0.4,0.9,0.6,1.5,0.6h8.3
	c2.3,0,4.1,1.8,4.1,4.1v2.1c0,2.3-1.9,4.1-4.1,4.1h-11.4c-0.3,0-0.6-0.1-0.8-0.3c-0.2-0.2-0.3-0.5-0.3-0.8c0-0.3,0.1-0.5,0.3-0.7
	c0.2-0.2,0.5-0.3,0.8-0.3h11.4c0.5,0,1.1-0.2,1.5-0.6c0.4-0.4,0.6-0.9,0.6-1.5v-2.1c0-1.1-0.9-2.1-2.1-2.1h-8.3
	c-1.1,0-2.2-0.4-2.9-1.2c-0.8-0.8-1.2-1.8-1.2-2.9v-1c0-2.3,1.8-4.1,4.1-4.1h11.4c0.3,0,0.5,0.1,0.7,0.3c0.2,0.2,0.3,0.5,0.3,0.7
	c0,0.3-0.1,0.5-0.3,0.7c-0.2,0.2-0.5,0.3-0.7,0.3L724.5,75.5z"/>
<path class="st0" d="M748,91.1c-2.8,0-5.1-2.3-5.2-5.2v-7.3c0-2.8,2.3-5.2,5.2-5.2h10.4c0.3,0,0.6,0.1,0.8,0.3
	c0.2,0.2,0.3,0.5,0.3,0.7c0,0.6-0.5,1-1,1H748c-0.8,0-1.6,0.3-2.2,0.9c-0.6,0.6-0.9,1.4-0.9,2.2v7.3c0,0.8,0.3,1.6,0.9,2.2
	c0.6,0.6,1.4,0.9,2.2,0.9h10.4c0.6,0,1,0.5,1,1c0,0.3-0.1,0.6-0.3,0.8c-0.2,0.2-0.5,0.3-0.7,0.3L748,91.1z"/>
<path class="st0" d="M765.6,90.8c-0.2-0.2-0.3-0.5-0.3-0.8V74.4c0-0.6,0.4-1,1-1c0.3,0,0.6,0.1,0.8,0.3c0.2,0.2,0.3,0.5,0.3,0.7V90
	c0,0.6-0.4,1.1-1,1.1C766.1,91.1,765.8,91,765.6,90.8z"/>
<path class="st0" d="M773.2,74.4c0-0.3,0.1-0.5,0.3-0.7c0.2-0.2,0.5-0.3,0.7-0.3h14.6c0.3,0,0.5,0.1,0.7,0.3
	c0.2,0.2,0.3,0.5,0.3,0.7c0,0.3-0.1,0.5-0.3,0.7c-0.2,0.2-0.5,0.3-0.7,0.3h-14.6C773.7,75.5,773.2,75,773.2,74.4L773.2,74.4z
	 M774.2,82.7c-0.3,0-0.5-0.1-0.7-0.3c-0.4-0.4-0.4-1.1,0-1.5c0,0,0,0,0,0c0.2-0.2,0.5-0.3,0.7-0.3h14.6c0.3,0,0.5,0.1,0.7,0.3
	c0.4,0.4,0.4,1,0,1.5c-0.2,0.2-0.5,0.3-0.8,0.3H774.2z M774.2,91.1c-0.3,0-0.5-0.1-0.7-0.3c-0.2-0.2-0.3-0.5-0.3-0.8
	c0-0.6,0.5-1,1-1h14.6c0.3,0,0.5,0.1,0.7,0.3c0.2,0.2,0.3,0.5,0.3,0.7c0,0.6-0.5,1-1,1L774.2,91.1z"/>
<path class="st0" d="M797.8,90c0,0.3-0.1,0.6-0.3,0.8c-0.2,0.2-0.5,0.3-0.7,0.3c-0.6,0-1-0.5-1-1V74.4c0-0.3,0.1-0.5,0.3-0.7
	c0.2-0.2,0.5-0.3,0.8-0.3h0.9c0.3,0,0.6,0.1,0.8,0.4l11.5,13.9c0,0.1,0.1,0.1,0.2,0.1c0.1,0,0.2-0.1,0.1-0.2V74.4
	c0-0.3,0.1-0.5,0.3-0.7c0.4-0.4,1.1-0.4,1.5,0c0,0,0,0,0,0c0.2,0.2,0.3,0.5,0.3,0.7V90c0,0.3-0.1,0.6-0.3,0.8
	c-0.2,0.2-0.5,0.3-0.7,0.3h-0.9c-0.3,0-0.6-0.1-0.8-0.4l-11.5-14c-0.1-0.1-0.2-0.1-0.2-0.1c-0.1,0-0.1,0.1-0.1,0.2V90z"/>
<path class="st0" d="M823.4,91.1c-2.8,0-5.2-2.3-5.2-5.1c0,0,0,0,0-0.1v-7.3c0-2.8,2.3-5.2,5.2-5.2c0,0,0,0,0.1,0h10.4
	c0.3,0,0.5,0.1,0.7,0.3c0.2,0.2,0.3,0.5,0.3,0.7c0,0.3-0.1,0.5-0.3,0.7c-0.2,0.2-0.5,0.3-0.7,0.3h-10.4c-1.7,0-3.1,1.4-3.1,3.1v7.3
	c0,0.8,0.3,1.6,0.9,2.2c0.6,0.6,1.4,0.9,2.2,0.9h10.3c0.3,0,0.5,0.1,0.7,0.3c0.2,0.2,0.3,0.5,0.3,0.7c0,0.6-0.5,1-1,1L823.4,91.1z"
	/>
<path class="st0" d="M840.7,74.4c0-0.3,0.1-0.5,0.3-0.7c0.2-0.2,0.5-0.3,0.8-0.3h14.6c0.3,0,0.5,0.1,0.7,0.3
	c0.2,0.2,0.3,0.5,0.3,0.7c0,0.3-0.1,0.5-0.3,0.7c-0.2,0.2-0.5,0.3-0.7,0.3h-14.6c-0.3,0-0.6-0.1-0.8-0.3
	C840.8,74.9,840.7,74.7,840.7,74.4z M841.7,82.7c-0.6,0-1.1-0.4-1.1-1c0-0.3,0.1-0.6,0.3-0.8c0.2-0.2,0.5-0.3,0.8-0.3h14.6
	c0.3,0,0.5,0.1,0.7,0.3c0.4,0.4,0.4,1,0,1.5c-0.2,0.2-0.5,0.3-0.8,0.3H841.7z M841.7,91.1c-0.3,0-0.6-0.1-0.8-0.3
	c-0.2-0.2-0.3-0.5-0.3-0.8c0-0.3,0.1-0.5,0.3-0.7c0.2-0.2,0.5-0.3,0.8-0.3h14.6c0.3,0,0.5,0.1,0.7,0.3c0.2,0.2,0.3,0.5,0.3,0.7
	c0,0.3-0.1,0.6-0.3,0.8c-0.2,0.2-0.5,0.3-0.7,0.3H841.7z"/>
<path class="st0" d="M875.3,71.4h5v1.3H877V94h3.2v1.3h-5V71.4z"/>
<path class="st0" d="M891.1,91.1c-2.8,0-5.1-2.3-5.2-5.2V74.4c0-0.3,0.1-0.5,0.3-0.7c0.2-0.2,0.5-0.3,0.8-0.3c0.3,0,0.5,0.1,0.7,0.3
	c0.2,0.2,0.3,0.5,0.3,0.7v11.4c0,1.7,1.4,3.1,3.1,3.1h6.2c0.8,0,1.6-0.3,2.2-0.9c0.6-0.6,0.9-1.4,0.9-2.2V74.4
	c0-0.3,0.1-0.5,0.3-0.7c0.4-0.4,1.1-0.4,1.5,0c0,0,0,0,0,0c0.2,0.2,0.3,0.5,0.3,0.7v11.4c0,2.8-2.3,5.1-5.2,5.2L891.1,91.1z"/>
<path class="st0" d="M913.5,75.5c-0.8,0-1.6,0.3-2.2,0.9c-0.6,0.6-0.9,1.4-0.9,2.2v7.3c0,0.8,0.3,1.6,0.9,2.2
	c0.6,0.6,1.4,0.9,2.2,0.9h8.8c0.4,0,0.5-0.2,0.5-0.5v-2.6c0-1.7-1.4-3.1-3.1-3.1h-4.1c-0.3,0-0.5-0.1-0.7-0.3c-0.4-0.4-0.4-1,0-1.5
	c0.2-0.2,0.5-0.3,0.8-0.3h4.1c2.8,0,5.2,2.3,5.2,5.1c0,0,0,0,0,0.1V90c0,0.3-0.1,0.6-0.3,0.8c-0.2,0.2-0.5,0.3-0.7,0.3h-10.4
	c-2.8,0-5.1-2.3-5.2-5.2v-7.3c0-2.8,2.3-5.2,5.2-5.2H924c0.3,0,0.5,0.1,0.7,0.3c0.2,0.2,0.3,0.5,0.3,0.7c0,0.6-0.5,1-1,1L913.5,75.5
	z"/>
<path class="st0" d="M930.6,94h3.2V72.7h-3.2v-1.3h5v23.9h-5V94z"/>
</svg>
